<svg xmlns="http://www.w3.org/2000/svg" id="Layer_1" data-name="Layer 1" viewBox="0 0 64 64"><defs><style>.cls-1{fill:#fff;fill-rule:evenodd;stroke-width:0}</style></defs><circle cx="32" cy="32" r="32" style="fill:#272938;stroke-width:0"/><path d="m24.3 36.54 4.2 6.83-4.2.68v-7.51Zm-.77-.78v8.41l-3.84.63V19.39c0-.93.69-1.72 1.61-1.83l14.36-1.8c.9-.11 1.8-.06 2.63.12.49.7.86 1.46 1.1 2.3l-13.56 1.7a2.62 2.62 0 0 0-2.28 2.3c-.62.08-1.1.6-1.1 1.23v11.13c0 .64.48 1.15 1.08 1.22Zm.81-13.66 4.16-.48a3.7 3.7 0 0 1 4.08 3.14l.54-.06c.44-.05.86-.02 1.27.07l5.3-4.45c0-.48-.04-.94-.12-1.4l-13.65 1.72c-.8.1-1.42.7-1.58 1.46Zm4.17 21.27c.74-.1.94-2.13.92-4.64l.97-.11c.13 2.52-.21 4.53-1.89 4.75Zm.33-14.28 3.5-3.53.86-.1.38-.02-4.35 3.65c0 1.1.25 2.69.52 4.4.23 1.43.47 2.95.6 4.36l-.94.1a122.8 122.8 0 0 0-.4-6.34 45.9 45.9 0 0 1-.17-2.52Zm-9.92-9.7v25.53l-1.78.29a1.85 1.85 0 0 1-2.07-1.84V16.31c0-.93.7-1.72 1.62-1.83l14.36-1.8a7.67 7.67 0 0 1 6.5 2.3 8.51 8.51 0 0 0-1.98.02L21.2 16.8a2.62 2.62 0 0 0-2.3 2.59Z" class="cls-1"/><path d="M44.31 38.67a7.7 7.7 0 0 1-6.74 7.64L24.3 47.97v-25.5c0-.93.7-1.72 1.62-1.83l14.36-1.8a7.7 7.7 0 0 1 2.63.12 7.65 7.65 0 0 1 1.4 4.44v15.27Zm-2.15-20.61a8.51 8.51 0 0 0-1.97.02l-14.36 1.8a2.62 2.62 0 0 0-2.3 2.59v25.6l-1.77.21a1.85 1.85 0 0 1-2.07-1.83V19.4c0-.93.69-1.72 1.61-1.83l14.36-1.8a7.67 7.67 0 0 1 6.5 2.3Zm-2.68 23c-2.08 1.6-4.67 3.07-5.71 3.2l-5.32-5.42a1.23 1.23 0 0 1-1.38-1.22V26.49c0-.63.47-1.15 1.1-1.22l4.95-.57c2.19-.25 9.04.57 9.04 2.78l.3 10.14c0 .46-.4 1.09-1.06 1.77a3.7 3.7 0 0 1-1.92 1.67Z" class="cls-1"/><path d="M42.19 49.39a7.7 7.7 0 0 0 6.74-7.64V26.48a7.7 7.7 0 0 0-8.65-7.64l-14.36 1.8c-.92.11-1.62.9-1.62 1.83v27.06c0 1.11.98 1.97 2.08 1.83l15.81-1.97Zm-3.61-8.1a3.7 3.7 0 0 0 3.27-3.67v-6.17a3.7 3.7 0 0 0-4.12-3.67l-4.95.57c-.62.07-1.09.6-1.09 1.22V40.7c0 .73.64 1.3 1.37 1.22l5.52-.63Z" class="cls-1"/></svg>